<svg xmlns="http://www.w3.org/2000/svg" width="176" height="108" version="1.1" desc="Created with imagetracer.js version 1.2.6">
<path fill="rgb(0,0,0)" stroke="rgb(0,0,0)" stroke-width="1" opacity="0" d="M 84 29 L 88 30.5 L 86.5 33 L 85 32.5 L 85.5 31 Q 82.9 31.7 84 29 Z "/><path fill="rgb(0,0,0)" stroke="rgb(0,0,0)" stroke-width="1" opacity="0" d="M 75 34 Q 78.8 32.5 78 35.5 L 77 36.5 L 79 40.5 L 80 43.5 L 79 43.5 L 77.5 41 L 75.5 42 Q 72.5 41.5 73 37.5 L 75 37.5 L 75 34 Z M 77 37 Q 75 40 78 39 L 77 37 Z "/><path fill="rgb(0,0,0)" stroke="rgb(0,0,0)" stroke-width="1" opacity="0" d="M 92.5 41 L 93 44 Q 87.8 45.7 89 42 L 91.5 43 L 92.5 41 Z "/><path fill="rgb(0,0,0)" stroke="rgb(0,0,0)" stroke-width="1" opacity="0" d="M 79.5 49 Q 81.8 48.3 81 50.5 L 81 52.5 L 79 57 L 76.5 58 L 77 56.5 L 78 53 L 80 52.5 L 79.5 49 Z "/><path fill="rgb(129,147,147)" stroke="rgb(129,147,147)" stroke-width="1" opacity="0.12156862745098039" d="M 83.5 14 L 86 14.5 L 83.5 15 L 83.5 14 Z "/><path fill="rgb(129,147,147)" stroke="rgb(129,147,147)" stroke-width="1" opacity="0.12156862745098039" d="M 88.5 14 L 91 14.5 L 88.5 15 L 88.5 14 Z "/><path fill="rgb(129,147,147)" stroke="rgb(129,147,147)" stroke-width="1" opacity="0.12156862745098039" d="M 80.5 15 L 82 15.5 L 77.5 18 L 78.5 16 L 80.5 15 Z "/><path fill="rgb(129,147,147)" stroke="rgb(129,147,147)" stroke-width="1" opacity="0.12156862745098039" d="M 92.5 15 L 96 17 L 97 20.5 L 96 20.5 L 92.5 15 Z "/><path fill="rgb(129,147,147)" stroke="rgb(129,147,147)" stroke-width="1" opacity="0.12156862745098039" d="M 74 18 L 76 18.5 L 72 21.5 L 74 18 Z "/><path fill="rgb(129,147,147)" stroke="rgb(129,147,147)" stroke-width="1" opacity="0.12156862745098039" d="M 68.5 23 L 69 24.5 L 66.5 28 L 67 26.5 L 68.5 23 Z "/><path fill="rgb(129,147,147)" stroke="rgb(129,147,147)" stroke-width="1" opacity="0.12156862745098039" d="M 64 29 L 66 29.5 L 64 30.5 L 64 29 Z "/><path fill="rgb(129,147,147)" stroke="rgb(129,147,147)" stroke-width="1" opacity="0.12156862745098039" d="M 100.5 32 L 103.5 36 L 100.5 32 Z "/><path fill="rgb(129,147,147)" stroke="rgb(129,147,147)" stroke-width="1" opacity="0.12156862745098039" d="M 107.5 41 L 108.5 43 L 107.5 41 Z "/><path fill="rgb(129,147,147)" stroke="rgb(129,147,147)" stroke-width="1" opacity="0.12156862745098039" d="M 103.5 59 L 106 60.5 L 104 61.5 L 103.5 59 Z "/><path fill="rgb(129,147,147)" stroke="rgb(129,147,147)" stroke-width="1" opacity="0.12156862745098039" d="M 91.5 61 L 92 63.5 L 91 63.5 L 91.5 61 Z "/><path fill="rgb(129,147,147)" stroke="rgb(129,147,147)" stroke-width="1" opacity="0.12156862745098039" d="M 108.5 65 L 107.5 67 L 108.5 65 Z "/><path fill="rgb(129,147,147)" stroke="rgb(129,147,147)" stroke-width="1" opacity="0.12156862745098039" d="M 100.5 67 L 99.5 69 L 97 68.5 L 100.5 67 Z "/><path fill="rgb(129,147,147)" stroke="rgb(129,147,147)" stroke-width="1" opacity="0.12156862745098039" d="M 105.5 71 L 106.5 73 L 104 72.5 L 105.5 71 Z "/><path fill="rgb(129,147,147)" stroke="rgb(129,147,147)" stroke-width="1" opacity="0.12156862745098039" d="M 92.5 73 L 93.5 75 L 92.5 73 Z "/><path fill="rgb(129,147,147)" stroke="rgb(129,147,147)" stroke-width="1" opacity="0.12156862745098039" d="M 95.5 75 L 96.5 77 L 95.5 75 Z "/><path fill="rgb(129,147,147)" stroke="rgb(129,147,147)" stroke-width="1" opacity="0.12156862745098039" d="M 99 75 L 101 75.5 L 99 76.5 L 99 75 Z "/><path fill="rgb(129,147,147)" stroke="rgb(129,147,147)" stroke-width="1" opacity="0.12156862745098039" d="M 73.5 79 L 72.5 81 L 73.5 79 Z "/><path fill="rgb(129,147,147)" stroke="rgb(129,147,147)" stroke-width="1" opacity="0.12156862745098039" d="M 75.5 80 L 77 80.5 L 74.5 82 L 75.5 80 Z "/><path fill="rgb(129,147,147)" stroke="rgb(129,147,147)" stroke-width="1" opacity="0.12156862745098039" d="M 82.5 80 L 81.5 82 L 82.5 80 Z "/><path fill="rgb(4,161,162)" stroke="rgb(4,161,162)" stroke-width="1" opacity="0.9921568627450981" d="M 84.5 15 Q 92.5 14 95 18.5 L 96 27.5 L 94 30.5 L 103 36.5 Q 106.3 40.2 105 48.5 L 100.5 55 L 93.5 56 L 89 54 L 90 58.5 L 87 67.5 L 82.5 72 L 76.5 73 L 70 68.5 L 69 60.5 Q 70.8 56.2 72.5 59 L 77.5 59 L 82 54.5 L 83 45.5 L 79 35.5 L 79 30.5 L 81.5 29 L 85.5 34 Q 88.8 35.1 88 32.5 Q 90.3 31.3 89 26.5 Q 87.8 22.8 81.5 24 L 73 31.5 L 71 37.5 L 74.5 43 Q 78.9 41.5 78 44.5 L 79 47.5 L 75.5 53 L 69.5 54 L 65 50.5 L 62 40.5 Q 64.6 27.6 73.5 21 L 84.5 15 Z M 90 36 Q 86 37 87 43 L 93 46 Q 96 45 95 39 Q 94 35 90 36 Z "/><path fill="rgb(55,143,145)" stroke="rgb(55,143,145)" stroke-width="1" opacity="0.5411764705882353" d="M 76.5 18 L 74.5 21 L 76.5 18 Z "/><path fill="rgb(55,143,145)" stroke="rgb(55,143,145)" stroke-width="1" opacity="0.5411764705882353" d="M 96.5 21 L 97 27.5 L 95 30.5 Q 101.4 31.6 104 36.5 L 105 39.5 L 104 39.5 L 99.5 33 L 94 30.5 Q 97.2 27.7 96.5 21 Z "/><path fill="rgb(55,143,145)" stroke="rgb(55,143,145)" stroke-width="1" opacity="0.5411764705882353" d="M 71.5 22 L 68.5 26 L 71.5 22 Z "/><path fill="rgb(55,143,145)" stroke="rgb(55,143,145)" stroke-width="1" opacity="0.5411764705882353" d="M 81.5 24 L 83 24.5 L 74 31.5 L 72.5 35 L 72 33.5 L 79.5 25 L 81.5 24 Z "/><path fill="rgb(55,143,145)" stroke="rgb(55,143,145)" stroke-width="1" opacity="0.5411764705882353" d="M 85.5 24 L 89 26.5 L 88.5 28 L 86.5 25 L 85.5 24 Z "/><path fill="rgb(55,143,145)" stroke="rgb(55,143,145)" stroke-width="1" opacity="0.5411764705882353" d="M 67.5 27 L 66.5 29 L 67.5 27 Z "/><path fill="rgb(55,143,145)" stroke="rgb(55,143,145)" stroke-width="1" opacity="0.5411764705882353" d="M 81.5 28 L 83.5 31 L 81.5 28 Z "/><path fill="rgb(55,143,145)" stroke="rgb(55,143,145)" stroke-width="1" opacity="0.5411764705882353" d="M 79.5 29 L 79 30.5 L 78.5 35 L 78 30.5 L 79.5 29 Z "/><path fill="rgb(55,143,145)" stroke="rgb(55,143,145)" stroke-width="1" opacity="0.5411764705882353" d="M 65.5 30 L 65 31.5 L 63.5 35 L 63 33.5 L 65.5 30 Z "/><path fill="rgb(55,143,145)" stroke="rgb(55,143,145)" stroke-width="1" opacity="0.5411764705882353" d="M 84.5 32 L 88 33.5 L 85.5 34 L 84.5 32 Z "/><path fill="rgb(55,143,145)" stroke="rgb(55,143,145)" stroke-width="1" opacity="0.5411764705882353" d="M 62.5 36 L 63 39.5 L 62 39.5 L 62.5 36 Z "/><path fill="rgb(55,143,145)" stroke="rgb(55,143,145)" stroke-width="1" opacity="0.5411764705882353" d="M 89.5 36 Q 94.3 35.3 95 38.5 L 94.5 40 L 92.5 37 Q 88.8 36.3 88 38.5 Q 87 43.5 90 44.5 L 87 42.5 Q 86 37 89.5 36 Z "/><path fill="rgb(55,143,145)" stroke="rgb(55,143,145)" stroke-width="1" opacity="0.5411764705882353" d="M 72.5 39 L 74.5 42 Q 78.3 41.3 79 43.5 L 78.5 45 L 78 43 Q 73.3 44 72 40.5 L 72.5 39 Z "/><path fill="rgb(55,143,145)" stroke="rgb(55,143,145)" stroke-width="1" opacity="0.5411764705882353" d="M 105.5 41 L 106 48.5 L 101.5 55 L 103 52.5 Q 106.1 48.6 105.5 41 Z "/><path fill="rgb(55,143,145)" stroke="rgb(55,143,145)" stroke-width="1" opacity="0.5411764705882353" d="M 62.5 43 L 63 45.5 L 62 45.5 L 62.5 43 Z "/><path fill="rgb(55,143,145)" stroke="rgb(55,143,145)" stroke-width="1" opacity="0.5411764705882353" d="M 94.5 43 L 92.5 46 L 91 45.5 L 94.5 43 Z "/><path fill="rgb(55,143,145)" stroke="rgb(55,143,145)" stroke-width="1" opacity="0.5411764705882353" d="M 82.5 45 L 83 51.5 L 82 51.5 L 82.5 45 Z "/><path fill="rgb(55,143,145)" stroke="rgb(55,143,145)" stroke-width="1" opacity="0.5411764705882353" d="M 63.5 47 L 65 49.5 L 63 48.5 L 63.5 47 Z "/><path fill="rgb(55,143,145)" stroke="rgb(55,143,145)" stroke-width="1" opacity="0.5411764705882353" d="M 78.5 48 L 79 49.5 L 76.5 53 L 77 51.5 L 78.5 48 Z "/><path fill="rgb(55,143,145)" stroke="rgb(55,143,145)" stroke-width="1" opacity="0.5411764705882353" d="M 65.5 51 L 66.5 53 L 65.5 51 Z "/><path fill="rgb(55,143,145)" stroke="rgb(55,143,145)" stroke-width="1" opacity="0.5411764705882353" d="M 81.5 53 L 82 54.5 L 76.5 59 L 76.5 58 L 81 54.5 L 81.5 53 Z "/><path fill="rgb(55,143,145)" stroke="rgb(55,143,145)" stroke-width="1" opacity="0.5411764705882353" d="M 70.5 54 L 73 54.5 L 70.5 55 L 70.5 54 Z "/><path fill="rgb(55,143,145)" stroke="rgb(55,143,145)" stroke-width="1" opacity="0.5411764705882353" d="M 89 54 L 98 56.5 L 93.5 57 L 90.5 55 L 89.5 57 L 89 54 Z "/><path fill="rgb(55,143,145)" stroke="rgb(55,143,145)" stroke-width="1" opacity="0.5411764705882353" d="M 70 57 L 74 58.5 L 72.5 59 Q 70.8 56.2 69 60.5 L 68.5 66 L 68 60.5 L 70 57 Z "/><path fill="rgb(55,143,145)" stroke="rgb(55,143,145)" stroke-width="1" opacity="0.5411764705882353" d="M 89.5 59 L 90 62.5 L 89 62.5 L 89.5 59 Z "/><path fill="rgb(55,143,145)" stroke="rgb(55,143,145)" stroke-width="1" opacity="0.5411764705882353" d="M 88.5 64 L 89 65.5 L 82.5 73 L 81 72.5 L 87 67.5 L 88.5 64 Z "/><path fill="rgb(55,143,145)" stroke="rgb(55,143,145)" stroke-width="1" opacity="0.5411764705882353" d="M 69.5 67 L 73 71.5 L 69 68.5 L 69.5 67 Z "/><path fill="rgb(55,143,145)" stroke="rgb(55,143,145)" stroke-width="1" opacity="0.5411764705882353" d="M 74.5 72 L 80 73.5 L 76.5 74 L 74.5 72 Z "/><path fill="rgb(254,193,173)" stroke="rgb(254,193,173)" stroke-width="1" opacity="0.9647058823529412" d="M 93.5 59 L 98.5 60 L 102.5 59 L 105 62.5 L 101.5 67 L 96.5 68 L 92 64.5 Q 91 60 93.5 59 Z "/><path fill="rgb(9,10,10)" stroke="rgb(9,10,10)" stroke-width="1" opacity="0.15294117647058825" d="M 97.5 21 L 99 24.5 L 97.5 27 L 97.5 21 Z "/><path fill="rgb(9,10,10)" stroke="rgb(9,10,10)" stroke-width="1" opacity="0.15294117647058825" d="M 83.5 24 L 88 26.5 L 89 30.5 L 85 31.5 L 86.5 29 L 83.5 30 Q 82 26.5 80.5 29 L 78 30.5 L 78 34 Q 73.5 32.3 75 37.5 L 73 37.5 L 72.5 39 L 72 35.5 L 79.5 26 L 83.5 24 Z "/><path fill="rgb(9,10,10)" stroke="rgb(9,10,10)" stroke-width="1" opacity="0.15294117647058825" d="M 96.5 28 L 99 29.5 L 95.5 31 L 96 29.5 L 96.5 28 Z "/><path fill="rgb(9,10,10)" stroke="rgb(9,10,10)" stroke-width="1" opacity="0.15294117647058825" d="M 78.5 35 L 82 44.5 L 82 50.5 L 81 50.5 Q 81.7 47.9 79 49 L 79 44.5 L 80 42.5 L 77 41.5 L 79 41.5 L 77.5 39 Q 75.3 39.8 76 37.5 L 78.5 35 Z "/><path fill="rgb(9,10,10)" stroke="rgb(9,10,10)" stroke-width="1" opacity="0.15294117647058825" d="M 89.5 37 Q 93.3 36.3 94 38.5 L 95 42.5 L 91.5 45 L 91.5 44 Q 94.1 44.8 93 41.5 L 92 41.5 L 91.5 43 L 89.5 42 L 88 42.5 Q 87 38 89.5 37 Z "/><path fill="rgb(9,10,10)" stroke="rgb(9,10,10)" stroke-width="1" opacity="0.15294117647058825" d="M 61.5 41 Q 61.7 49.3 66.5 53 L 72.5 55 L 78 51.5 Q 77.3 49.3 79.5 50 L 79.5 53 Q 77.3 52.3 78 54.5 L 77 56.5 L 77.5 58 L 73.5 58 L 70.5 57 L 69 60 L 66 59.5 L 68 59 Q 69.1 56.3 66.5 57 Q 65.3 59.3 64 56.5 L 66 56.5 L 64.5 54 L 62.5 55 L 62.5 54 L 64 53.5 L 61 52.5 L 63 52 L 62.5 49 L 61 49.5 L 62 46 L 60 45.5 L 61 42.5 L 61.5 41 Z "/><path fill="rgb(9,10,10)" stroke="rgb(9,10,10)" stroke-width="1" opacity="0.15294117647058825" d="M 106.5 42 L 108 44.5 L 108 46.5 L 107.5 49 Q 104.4 47.4 106.5 42 Z "/><path fill="rgb(9,10,10)" stroke="rgb(9,10,10)" stroke-width="1" opacity="0.15294117647058825" d="M 105.5 49 L 107 52.5 L 106 56 L 102 57.5 L 102.5 59 L 100.5 58 L 96.5 59 L 94.5 58 Q 90.5 58.5 91 63.5 Q 93.1 68.4 99.5 69 L 105 64.5 L 104 67.5 L 105 67.5 Q 104.3 64.9 107 66 Q 108.1 68.7 105.5 68 L 105.5 70 L 103.5 69 Q 105.3 71.5 100.5 74 L 100 72 L 98 72.5 L 99 74.5 L 98 74.5 L 96.5 72 L 96 74 L 90.5 72 L 86 74.5 L 86.5 76 L 85 76.5 L 85.5 78 L 82.5 76 L 79 78.5 L 78.5 80 L 76.5 77 L 74 78.5 Q 76.2 77.3 73.5 76 L 69 75.5 L 71 75 L 70.5 73 L 69 73.5 L 69 71.5 L 68.5 69 Q 67.3 71.3 66 68.5 L 68 68.5 L 68.5 67 L 72.5 72 L 79.5 74 Q 85.6 72.6 88 67.5 Q 90.9 62.9 90.5 55 Q 92.2 57.8 97.5 57 L 104 52.5 L 105.5 49 Z M 90 67 L 90 69 Q 86 70 90 72 L 94 71 Q 93 68 92 70 L 92 69 Q 93 66 90 67 Z "/><path fill="rgb(9,10,10)" stroke="rgb(9,10,10)" stroke-width="1" opacity="0.15294117647058825" d="M 80.5 54 L 79.5 56 L 80.5 54 Z "/><path fill="rgb(9,10,10)" stroke="rgb(9,10,10)" stroke-width="1" opacity="0.15294117647058825" d="M 67.5 62 L 68 65.5 L 67 65.5 L 67.5 62 Z "/><path fill="rgb(9,10,10)" stroke="rgb(9,10,10)" stroke-width="1" opacity="0.15294117647058825" d="M 66.5 71 Q 68.8 70.3 68 72.5 L 66.5 71 Z "/></svg>